<svg width="1509" height="386" viewBox="0 0 1509 386" fill="none" xmlns="http://www.w3.org/2000/svg">
<g class="hole">
  <path d="M117.689 90.4942C117.689 90.4942 283.592 4.69965 754.332 12.5016C1225.07 20.3062 1489.47 74.1767 1495.92 178.715C1502.37 283.255 1108.85 361 739.797 361C370.748 361 16 328.362 16 172.718C16 139.244 117.689 90.4942 117.689 90.4942Z" fill="white" class="hole-rim"/>
  <path d="M1191.15 319.742C1068.5 345.918 940.102 358.796 811.063 361.011C673.45 363.372 536.273 354.42 399.948 340.009C304.902 329.961 206.947 322.441 123.486 290.694C122.552 290.218 121.628 289.728 120.69 289.251C120.379 288.778 120.145 288.282 119.524 287.889C91.8689 270.44 61.8358 255.489 41.5324 230.513C36.1909 223.941 32.1435 216.92 28.8603 209.759C26.4558 189.114 31.619 167.961 44.3283 150.944C77.1679 106.977 141.913 81.205 208.415 65.7905C318.759 40.2133 441.373 29.5794 557.522 23.0234C806.813 8.95843 1061.71 26.7312 1303.2 75.6285C1353.03 85.7168 1407.85 97.647 1445.82 123.419C1460.8 133.579 1470.69 144.162 1476.42 154.849C1506.08 251.252 1294.32 297.724 1191.15 319.742V319.742ZM1502.07 155.855C1501.06 150.162 1499.49 144.33 1497.19 138.322C1495.67 134.364 1491.23 132.298 1486.43 131.721C1449.41 90.508 1370.46 71.4948 1306.62 58.3801C1182.17 32.8109 1053.78 16.0388 924.917 7.18294C783.855 -2.51134 641.646 -2.35426 501.175 7.41988C387.708 15.3148 265.975 25.3551 160.669 55.5C99.5003 73.0093 38.8323 105.185 10.1758 146.856C9.92021 148.783 10.0161 150.689 9.88824 152.608C-5.73675 178.728 -2.30172 210.076 16.3641 236.75C40.1744 270.779 79.5936 290.183 120.635 304.091C173.599 327.326 236.802 340.938 299.824 350.582C300.133 350.67 300.375 350.803 300.724 350.859C405.601 368.294 511.352 378.749 617.279 382.619C713.167 387.357 809.383 387.339 904.749 381.137C1019.28 373.686 1132.08 357.678 1239.74 331.505C1386.46 301.669 1544.21 248.832 1502.07 155.855" fill="#2B2A2A"/>
  <path d="M473.934 65.0009C355.853 66.9356 203.736 84.6024 109.018 150.146C58.9433 184.802 41.0753 251.488 89.4077 282.591C99.3004 288.958 111.968 293.835 127.701 296.641C147.179 300.115 148.841 277.324 131.608 273.287C87.8753 219.298 91.6332 179.91 142.879 155.121C148.953 151.719 155.141 148.488 161.443 145.421C167.633 142.407 173.936 139.559 180.347 136.867C210.099 123.563 241.318 112.216 273.182 103.088C338.458 84.3844 406.48 76.2659 475.281 74.3047C482.762 74.0894 480.621 64.892 473.934 65.0009Z" fill="#2B2A2A"/>
  <path d="M1448.74 178.981C1399.27 135.523 1288.47 118.167 1222.67 103.101C1029.52 58.8601 830.827 46.1172 632.547 69.5436C625.982 70.3209 629.479 79.0226 635.356 78.5872C770.057 68.6328 905.845 70.4997 1039.7 88.3039C1100.37 96.3727 1160.57 107.404 1219.41 122.059C1248.9 129.401 1278.08 137.641 1306.88 146.642C1314.21 148.936 1497.65 201.053 1417.31 242.327C1399.26 251.597 1419.8 272.324 1437.15 265.726C1480.87 249.108 1479.48 205.984 1448.74 178.981" fill="#2B2A2A"/>
  <path d="M89.3684 282.472C89.3684 282.472 27.0836 211.796 101.668 169.204C176.253 126.614 192.233 30.7829 855.505 65.3894C1518.78 99.9933 1457.51 227.768 1457.51 227.768C1457.51 227.768 1228.43 390.145 719.654 371.511C210.88 352.879 89.3684 282.472 89.3684 282.472" fill="#2B2A2A"/>
</g>
<g class="lid">
  <path d="M713 53C118.5 53 47 152 54.5 214C21.9997 300.5 497.604 353.5 713 353.5C982.5 353.5 1460.5 259 1470 205.5C1482.1 137.354 1370.17 53 713 53Z" fill="white" class="lid-base"/>
  <path d="M695.539 189.153C693.112 203.158 668.681 217.94 628.908 215.77C606.779 214.563 586.263 208.006 587.242 198.393C588.131 189.69 605.712 182.296 627.714 182.14C629.688 182.127 628.999 180.996 627.252 181C579.349 181.126 567.238 206.191 606.308 215.456C653.933 226.749 702.049 209.127 702 189.711C701.996 188.251 695.833 187.449 695.539 189.153" fill="#2B2A2A"/>
  <path d="M810.564 193.554C795.391 202.016 763.611 205.769 743.019 197.848C721.367 189.52 733.465 173.495 758.958 169.09C760.606 168.805 759.394 167.806 757.835 168.033C727.738 172.411 715.092 189.056 737.141 199.025C757.786 208.36 802.642 206.583 815.781 194.911C817.05 193.784 812.476 192.487 810.564 193.554" fill="#2B2A2A"/>
  <path d="M486.263 181.004C471.599 180.895 457.958 183.286 448.364 187.855C447.015 188.498 449.751 189.417 451.133 188.791C460.456 184.572 472.82 182.223 486.748 182.237C488.818 182.239 488.084 181.016 486.263 181.004" fill="#2B2A2A"/>
  <path d="M538.849 191.515C536.638 190.329 532.245 191.389 534.408 192.698C556.708 206.188 530.769 222.261 493.819 223.884C457.452 225.48 424.328 212.684 438.566 197.505C439.098 196.936 436.805 196.434 436.185 197.034C419.598 213.103 455.046 227.544 494.602 225.867C534.697 224.166 565.894 206.017 538.849 191.515" fill="#2B2A2A"/>
  <path d="M370.764 180.541C367.923 179.255 362.404 180.482 365.399 181.922C392.343 194.878 382.051 214.665 338.985 219.668C317.655 222.144 295.911 219.565 281.028 213.186C262.088 205.066 255.057 188.997 288.483 184.219C290.452 183.938 288.985 182.786 287.183 183.027C230.496 190.612 273.145 221.235 318.177 222.881C377.24 225.04 408.024 197.427 370.764 180.541" fill="#2B2A2A"/>
  <path d="M209.221 182.007C207.146 181.901 207.025 183.021 208.915 183.159C264.182 187.2 211.678 229.997 167.554 213.701C165.246 212.849 161.431 214.073 163.69 215.053C211.173 235.666 276.4 185.414 209.221 182.007Z" fill="#2B2A2A"/>
  <path d="M148.682 181.015C140.744 181.661 135.645 183.791 134.049 186.89C133.472 188.01 138.179 188.503 138.925 187.307C140.343 185.03 144.535 183.14 150.024 182.241C152.062 181.906 150.564 180.862 148.682 181.015Z" fill="#2B2A2A"/>
  <path d="M271.414 221.121C269.86 220.692 268.149 221.51 269.733 221.945C306.299 232.006 278.855 254.33 237.05 248.334C233.247 247.788 231.298 249.8 234.923 250.454C254.152 253.919 277.552 251.506 287.833 243.761C299.478 234.989 290.34 226.328 271.414 221.121Z" fill="#2B2A2A"/>
  <path d="M206.155 223.059C191.597 225.602 186.853 232.491 194.884 237.536C196.562 238.591 200.665 237.666 198.877 236.564C191.896 232.261 196.756 226.501 208.282 224.118C210.182 223.726 207.906 222.753 206.155 223.059" fill="#2B2A2A"/>
  <path d="M437.926 232.349C437.338 231.748 434.941 231.973 435.55 232.641C447.118 245.315 431.247 260.071 398.873 264.453C365.787 268.932 334.435 261.748 318.896 249.873C317.197 248.575 311.545 249.033 313.352 250.553C329.032 263.755 365.493 271.422 401.055 266.498C437.342 261.472 451.513 246.218 437.926 232.349Z" fill="#2B2A2A"/>
  <path d="M600.792 224.228C599.066 223.55 596.118 224.531 597.86 225.279C620.332 234.93 623.931 249.338 601.587 259.605C573.46 272.529 510.015 268.413 515.531 248.315C515.962 246.743 509.638 246.015 508.863 247.732C500.593 266.093 553.572 275.232 589.452 266.894C628.967 257.71 632.202 236.562 600.792 224.228" fill="#2B2A2A"/>
  <path d="M744.223 212.485C742.071 211.369 737.835 212.363 739.915 213.601C756.334 223.374 749.133 235.369 723.159 241.038C720.092 241.708 723.763 243.467 726.645 242.883C755.583 237.019 764.034 222.765 744.223 212.485" fill="#2B2A2A"/>
  <path d="M503.476 266.48C503.23 265.86 500.703 265.809 500.9 266.513C503.571 276.076 482.189 282.042 460.455 281.072C444.786 280.371 432.42 276.721 421.387 272.412C418.673 271.352 414.153 272.863 416.806 274.064C430.724 280.365 449.82 285.103 471.497 283.776C492.921 282.464 506.936 275.143 503.476 266.48Z" fill="#2B2A2A"/>
  <path d="M722.397 111.183C719.882 110.53 717.117 111.779 719.679 112.489C742.166 118.715 758.902 130.071 746.536 140.976C732.881 153.019 693.503 156.373 672.63 145.18C670.634 144.109 666.527 145.076 668.542 146.236C687.109 156.936 726.639 156.365 745.059 145.828C766.233 133.717 751.195 118.661 722.397 111.183Z" fill="#2B2A2A"/>
  <path d="M584.613 131.202C582.924 130.581 581.092 131.532 582.615 132.158C600.279 139.403 604.29 151.906 586.988 159.843C570.592 167.366 542.103 168.399 520.817 163.811C517.186 163.028 515.481 165.093 518.71 165.855C543.315 171.666 577.165 169.3 593.641 159.779C609.356 150.697 604.567 138.546 584.613 131.202Z" fill="#2B2A2A"/>
  <path d="M415.149 138.196C413.14 137.562 411.009 138.613 412.906 139.3C431.148 145.908 447.609 156.245 434.691 166.286C421.795 176.31 389.165 176.508 372.267 168.083C369.472 166.688 363.908 167.99 366.82 169.525C384.11 178.631 417.04 179.965 435.503 170.478C456.959 159.457 438.534 145.57 415.149 138.196" fill="#2B2A2A"/>
  <path d="M263.413 142.085C261.878 141.713 260.504 142.659 261.97 143.051C307.734 155.289 265.733 181.896 217.782 170.897C214.17 170.069 212.518 172.171 215.668 172.969C238.254 178.691 268.587 176.175 281.641 166.575C293.724 157.688 284.402 147.18 263.413 142.085Z" fill="#2B2A2A"/>
  <path d="M157.917 140.266C156.74 139.656 154.414 140.198 155.549 140.871C176.714 153.446 157.994 167.575 122.734 170.797C119.395 171.102 121.397 173.126 124.376 172.994C165.4 171.161 181.835 152.646 157.917 140.266" fill="#2B2A2A"/>
  <path d="M834.617 137.01C823.175 139.755 809.066 139.379 798.705 136.162C797.208 135.697 795.18 136.322 796.347 136.906C805.648 141.558 825.944 142.398 838.077 138.64C840.621 137.853 837.389 136.344 834.617 137.01Z" fill="#2B2A2A"/>
  <path d="M786.563 81.5096C786.098 80.8762 783.142 80.7728 783.568 81.546C788.06 89.7099 772.78 96.8339 751.03 97.1517C747.666 97.2006 748.874 98.9935 751.813 98.9998C776.387 99.0528 793.139 90.4314 786.563 81.5096" fill="#2B2A2A"/>
  <path d="M666.593 77.129C665.48 76.7395 663.672 77.3121 664.769 77.7852C697.235 91.7396 679.346 113.739 631.157 115.902C627.625 116.06 628.806 118.095 631.995 117.997C683.939 116.402 706.595 91.1384 666.593 77.129" fill="#2B2A2A"/>
  <path d="M525.924 100.345C525.057 99.7466 522.273 99.974 523.235 100.664C534.132 108.481 523.372 116.809 505.689 121.326C491.298 125.001 473.902 126.068 457.34 127.298C454.771 127.49 456.287 129.137 458.611 128.991C479.348 127.688 501.377 125.805 517.012 119.922C530.831 114.724 535.578 107.01 525.924 100.345" fill="#2B2A2A"/>
  <path d="M360.397 119.073C349.145 121.548 337.835 123.975 326.781 126.598C324.708 127.09 327.203 128.342 329.158 127.911C340.376 125.44 351.337 122.775 362.357 120.156C364.065 119.749 362.007 118.718 360.397 119.073" fill="#2B2A2A"/>
  <path d="M612.819 53.0884C611.404 52.7168 610.312 53.6113 611.519 54.0302C618.556 56.467 622.881 60.0279 622.861 63.9495C622.856 64.9844 626.963 65.4972 626.997 64.3374C627.134 59.6431 622.167 55.5445 612.819 53.0884Z" fill="#2B2A2A"/>
  <path d="M616.257 70C614.187 70 614.903 71 616.743 71C618.813 71 618.096 70 616.257 70Z" fill="#2B2A2A"/>
  <path d="M732.937 41.6608C732.366 40.8219 728.441 40.7223 729.01 41.7077C730.81 44.8357 729.225 47.9097 724.376 50.5513C722.812 51.4042 726.531 52.5522 728.095 51.7C733.631 48.6835 735.346 45.2121 732.937 41.6608" fill="#2B2A2A"/>
  <path d="M695.539 189.153C693.112 203.158 668.681 217.94 628.908 215.77C606.779 214.563 586.263 208.006 587.242 198.393C588.131 189.69 605.712 182.296 627.714 182.14C629.688 182.127 628.999 180.996 627.252 181C579.349 181.126 567.238 206.191 606.308 215.456C653.933 226.749 702.049 209.127 702 189.711C701.996 188.251 695.833 187.449 695.539 189.153" fill="#2B2A2A"/>
  <path d="M810.564 193.554C795.391 202.016 763.611 205.769 743.019 197.848C721.367 189.52 733.465 173.495 758.958 169.09C760.606 168.805 759.394 167.806 757.835 168.033C727.738 172.411 715.092 189.056 737.141 199.025C757.786 208.36 802.642 206.583 815.781 194.911C817.05 193.784 812.476 192.487 810.564 193.554" fill="#2B2A2A"/>
  <path d="M486.263 181.004C471.599 180.895 457.958 183.286 448.364 187.855C447.015 188.498 449.751 189.417 451.133 188.791C460.456 184.572 472.82 182.223 486.748 182.237C488.818 182.239 488.084 181.016 486.263 181.004" fill="#2B2A2A"/>
  <path d="M538.849 191.515C536.638 190.329 532.245 191.389 534.408 192.698C556.708 206.188 530.769 222.261 493.819 223.884C457.452 225.48 424.328 212.684 438.566 197.505C439.098 196.936 436.805 196.434 436.185 197.034C419.598 213.103 455.046 227.544 494.602 225.867C534.697 224.166 565.894 206.017 538.849 191.515" fill="#2B2A2A"/>
  <path d="M370.764 180.541C367.923 179.255 362.404 180.482 365.399 181.922C392.343 194.878 382.051 214.665 338.985 219.668C317.655 222.144 295.911 219.565 281.028 213.186C262.088 205.066 255.057 188.997 288.483 184.219C290.452 183.938 288.985 182.786 287.183 183.027C230.496 190.612 273.145 221.235 318.177 222.881C377.24 225.04 408.024 197.427 370.764 180.541" fill="#2B2A2A"/>
  <path d="M209.221 182.007C207.146 181.901 207.025 183.021 208.915 183.159C264.182 187.2 211.678 229.997 167.554 213.701C165.246 212.849 161.431 214.073 163.69 215.053C211.173 235.666 276.4 185.414 209.221 182.007Z" fill="#2B2A2A"/>
  <path d="M148.682 181.015C140.744 181.661 135.645 183.791 134.049 186.89C133.472 188.01 138.179 188.503 138.925 187.307C140.343 185.03 144.535 183.14 150.024 182.241C152.062 181.906 150.564 180.862 148.682 181.015Z" fill="#2B2A2A"/>
  <path d="M271.414 221.121C269.86 220.692 268.149 221.51 269.733 221.945C306.299 232.006 278.855 254.33 237.05 248.334C233.247 247.788 231.298 249.8 234.923 250.454C254.152 253.919 277.552 251.506 287.833 243.761C299.478 234.989 290.34 226.328 271.414 221.121Z" fill="#2B2A2A"/>
  <path d="M206.155 223.059C191.597 225.602 186.853 232.491 194.884 237.536C196.562 238.591 200.665 237.666 198.877 236.564C191.896 232.261 196.756 226.501 208.282 224.118C210.182 223.726 207.906 222.753 206.155 223.059" fill="#2B2A2A"/>
  <path d="M437.926 232.349C437.338 231.748 434.941 231.973 435.55 232.641C447.118 245.315 431.247 260.071 398.873 264.453C365.787 268.932 334.435 261.748 318.896 249.873C317.197 248.575 311.545 249.033 313.352 250.553C329.032 263.755 365.493 271.422 401.055 266.498C437.342 261.472 451.513 246.218 437.926 232.349Z" fill="#2B2A2A"/>
  <path d="M600.792 224.228C599.066 223.55 596.118 224.531 597.86 225.279C620.332 234.93 623.931 249.338 601.587 259.605C573.46 272.529 510.015 268.413 515.531 248.315C515.962 246.743 509.638 246.015 508.863 247.732C500.593 266.093 553.572 275.232 589.452 266.894C628.967 257.71 632.202 236.562 600.792 224.228" fill="#2B2A2A"/>
  <path d="M744.223 212.485C742.071 211.369 737.835 212.363 739.915 213.601C756.334 223.374 749.133 235.369 723.159 241.038C720.092 241.708 723.763 243.467 726.645 242.883C755.583 237.019 764.034 222.765 744.223 212.485" fill="#2B2A2A"/>
  <path d="M503.476 266.48C503.23 265.86 500.703 265.809 500.9 266.513C503.571 276.076 482.189 282.042 460.455 281.072C444.786 280.371 432.42 276.721 421.387 272.412C418.673 271.352 414.153 272.863 416.806 274.064C430.724 280.365 449.82 285.103 471.497 283.776C492.921 282.464 506.936 275.143 503.476 266.48Z" fill="#2B2A2A"/>
  <path d="M722.397 111.183C719.882 110.53 717.117 111.779 719.679 112.489C742.166 118.715 758.902 130.071 746.536 140.976C732.881 153.019 693.503 156.373 672.63 145.18C670.634 144.109 666.527 145.076 668.542 146.236C687.109 156.936 726.639 156.365 745.059 145.828C766.233 133.717 751.195 118.661 722.397 111.183Z" fill="#2B2A2A"/>
  <path d="M584.613 131.202C582.924 130.581 581.092 131.532 582.615 132.158C600.279 139.403 604.29 151.906 586.988 159.843C570.592 167.366 542.103 168.399 520.817 163.811C517.186 163.028 515.481 165.093 518.71 165.855C543.315 171.666 577.165 169.3 593.641 159.779C609.356 150.697 604.567 138.546 584.613 131.202Z" fill="#2B2A2A"/>
  <path d="M415.149 138.196C413.14 137.562 411.009 138.613 412.906 139.3C431.148 145.908 447.609 156.245 434.691 166.286C421.795 176.31 389.165 176.508 372.267 168.083C369.472 166.688 363.908 167.99 366.82 169.525C384.11 178.631 417.04 179.965 435.503 170.478C456.959 159.457 438.534 145.57 415.149 138.196" fill="#2B2A2A"/>
  <path d="M263.413 142.085C261.878 141.713 260.504 142.659 261.97 143.051C307.734 155.289 265.733 181.896 217.782 170.897C214.17 170.069 212.518 172.171 215.668 172.969C238.254 178.691 268.587 176.175 281.641 166.575C293.724 157.688 284.402 147.18 263.413 142.085Z" fill="#2B2A2A"/>
  <path d="M157.917 140.266C156.74 139.656 154.414 140.198 155.549 140.871C176.714 153.446 157.994 167.575 122.734 170.797C119.395 171.102 121.397 173.126 124.376 172.994C165.4 171.161 181.835 152.646 157.917 140.266" fill="#2B2A2A"/>
  <path d="M834.617 137.01C823.175 139.755 809.066 139.379 798.705 136.162C797.208 135.697 795.18 136.322 796.347 136.906C805.648 141.558 825.944 142.398 838.077 138.64C840.621 137.853 837.389 136.344 834.617 137.01Z" fill="#2B2A2A"/>
  <path d="M786.563 81.5096C786.098 80.8762 783.142 80.7728 783.568 81.546C788.06 89.7099 772.78 96.8339 751.03 97.1517C747.666 97.2006 748.874 98.9935 751.813 98.9998C776.387 99.0528 793.139 90.4314 786.563 81.5096" fill="#2B2A2A"/>
  <path d="M666.593 77.129C665.48 76.7395 663.672 77.3121 664.769 77.7852C697.235 91.7396 679.346 113.739 631.157 115.902C627.625 116.06 628.806 118.095 631.995 117.997C683.939 116.402 706.595 91.1384 666.593 77.129" fill="#2B2A2A"/>
  <path d="M525.924 100.345C525.057 99.7466 522.273 99.974 523.235 100.664C534.132 108.481 523.372 116.809 505.689 121.326C491.298 125.001 473.902 126.068 457.34 127.298C454.771 127.49 456.287 129.137 458.611 128.991C479.348 127.688 501.377 125.805 517.012 119.922C530.831 114.724 535.578 107.01 525.924 100.345" fill="#2B2A2A"/>
  <path d="M360.397 119.073C349.145 121.548 337.835 123.975 326.781 126.598C324.708 127.09 327.203 128.342 329.158 127.911C340.376 125.44 351.337 122.775 362.357 120.156C364.065 119.749 362.007 118.718 360.397 119.073" fill="#2B2A2A"/>
  <path d="M612.819 53.0884C611.404 52.7168 610.312 53.6113 611.519 54.0302C618.556 56.467 622.881 60.0279 622.861 63.9495C622.856 64.9844 626.963 65.4972 626.997 64.3374C627.134 59.6431 622.167 55.5445 612.819 53.0884Z" fill="#2B2A2A"/>
  <path d="M616.257 70C614.187 70 614.903 71 616.743 71C618.813 71 618.096 70 616.257 70Z" fill="#2B2A2A"/>
  <path d="M732.937 41.6608C732.366 40.8219 728.441 40.7223 729.01 41.7077C730.81 44.8357 729.225 47.9097 724.376 50.5513C722.812 51.4042 726.531 52.5522 728.095 51.7C733.631 48.6835 735.346 45.2121 732.937 41.6608" fill="#2B2A2A"/>
  <path d="M1209.54 220.153C1207.11 234.158 1182.68 248.94 1142.91 246.77C1120.78 245.563 1100.26 239.006 1101.24 229.393C1102.13 220.69 1119.71 213.296 1141.71 213.14C1143.69 213.127 1143 211.996 1141.25 212C1093.35 212.126 1081.24 237.191 1120.31 246.456C1167.93 257.749 1216.05 240.127 1216 220.711C1216 219.251 1209.83 218.449 1209.54 220.153" fill="#2B2A2A"/>
  <path d="M1324.56 224.554C1309.39 233.016 1277.61 236.769 1257.02 228.848C1235.37 220.52 1247.47 204.495 1272.96 200.09C1274.61 199.805 1273.39 198.806 1271.83 199.033C1241.74 203.411 1229.09 220.056 1251.14 230.025C1271.79 239.36 1316.64 237.583 1329.78 225.911C1331.05 224.784 1326.48 223.487 1324.56 224.554" fill="#2B2A2A"/>
  <path d="M1000.26 212.004C985.599 211.895 971.958 214.286 962.364 218.855C961.015 219.498 963.751 220.417 965.133 219.791C974.456 215.572 986.82 213.223 1000.75 213.237C1002.82 213.239 1002.08 212.016 1000.26 212.004" fill="#2B2A2A"/>
  <path d="M1052.85 222.515C1050.64 221.329 1046.24 222.389 1048.41 223.698C1070.71 237.188 1044.77 253.261 1007.82 254.884C971.452 256.48 938.328 243.684 952.566 228.505C953.098 227.936 950.805 227.434 950.185 228.034C933.598 244.103 969.046 258.544 1008.6 256.867C1048.7 255.166 1079.89 237.017 1052.85 222.515" fill="#2B2A2A"/>
  <path d="M884.764 211.541C881.923 210.255 876.404 211.482 879.399 212.922C906.343 225.878 896.051 245.665 852.985 250.668C831.655 253.144 809.911 250.565 795.028 244.186C776.088 236.066 769.057 219.997 802.483 215.219C804.452 214.938 802.985 213.786 801.183 214.027C744.496 221.612 787.145 252.235 832.177 253.881C891.24 256.04 922.024 228.427 884.764 211.541" fill="#2B2A2A"/>
  <path d="M723.221 213.007C721.146 212.901 721.025 214.021 722.915 214.159C778.182 218.2 725.678 260.997 681.554 244.701C679.246 243.849 675.431 245.073 677.69 246.053C725.173 266.666 790.4 216.414 723.221 213.007Z" fill="#2B2A2A"/>
  <path d="M662.682 212.015C654.744 212.661 649.645 214.791 648.049 217.89C647.472 219.01 652.179 219.503 652.925 218.307C654.343 216.03 658.535 214.14 664.024 213.241C666.062 212.906 664.564 211.862 662.682 212.015Z" fill="#2B2A2A"/>
  <path d="M785.414 252.121C783.86 251.692 782.149 252.51 783.733 252.945C820.299 263.006 792.855 285.33 751.05 279.334C747.247 278.788 745.298 280.8 748.923 281.454C768.152 284.919 791.552 282.506 801.833 274.761C813.478 265.989 804.34 257.328 785.414 252.121Z" fill="#2B2A2A"/>
  <path d="M720.155 254.059C705.597 256.602 700.853 263.491 708.884 268.536C710.562 269.591 714.665 268.666 712.877 267.564C705.896 263.261 710.756 257.501 722.282 255.118C724.182 254.726 721.906 253.753 720.155 254.059" fill="#2B2A2A"/>
  <path d="M951.926 263.349C951.338 262.748 948.941 262.973 949.55 263.641C961.118 276.315 945.247 291.071 912.873 295.453C879.787 299.932 848.435 292.748 832.896 280.873C831.197 279.575 825.545 280.033 827.352 281.553C843.032 294.755 879.493 302.422 915.055 297.498C951.342 292.472 965.513 277.218 951.926 263.349Z" fill="#2B2A2A"/>
  <path d="M1114.79 255.228C1113.07 254.55 1110.12 255.531 1111.86 256.279C1134.33 265.93 1137.93 280.338 1115.59 290.605C1087.46 303.529 1024.01 299.413 1029.53 279.315C1029.96 277.743 1023.64 277.015 1022.86 278.732C1014.59 297.093 1067.57 306.232 1103.45 297.894C1142.97 288.71 1146.2 267.562 1114.79 255.228" fill="#2B2A2A"/>
  <path d="M1258.22 243.485C1256.07 242.369 1251.83 243.363 1253.92 244.601C1270.33 254.374 1263.13 266.369 1237.16 272.038C1234.09 272.708 1237.76 274.467 1240.65 273.883C1269.58 268.019 1278.03 253.765 1258.22 243.485" fill="#2B2A2A"/>
  <path d="M1017.48 297.48C1017.23 296.86 1014.7 296.809 1014.9 297.513C1017.57 307.076 996.189 313.042 974.455 312.072C958.786 311.371 946.42 307.721 935.387 303.412C932.673 302.352 928.153 303.863 930.806 305.064C944.724 311.365 963.82 316.103 985.497 314.776C1006.92 313.464 1020.94 306.143 1017.48 297.48Z" fill="#2B2A2A"/>
  <path d="M1236.4 142.183C1233.88 141.53 1231.12 142.779 1233.68 143.489C1256.17 149.715 1272.9 161.071 1260.54 171.976C1246.88 184.019 1207.5 187.373 1186.63 176.18C1184.63 175.109 1180.53 176.076 1182.54 177.236C1201.11 187.936 1240.64 187.365 1259.06 176.828C1280.23 164.717 1265.2 149.661 1236.4 142.183Z" fill="#2B2A2A"/>
  <path d="M1098.61 162.202C1096.92 161.581 1095.09 162.532 1096.61 163.158C1114.28 170.403 1118.29 182.906 1100.99 190.843C1084.59 198.366 1056.1 199.399 1034.82 194.811C1031.19 194.028 1029.48 196.093 1032.71 196.855C1057.31 202.666 1091.16 200.3 1107.64 190.779C1123.36 181.697 1118.57 169.546 1098.61 162.202Z" fill="#2B2A2A"/>
  <path d="M929.149 169.196C927.14 168.562 925.009 169.613 926.906 170.3C945.148 176.908 961.609 187.245 948.691 197.286C935.795 207.31 903.165 207.508 886.267 199.083C883.472 197.688 877.908 198.99 880.82 200.525C898.11 209.631 931.04 210.965 949.503 201.478C970.959 190.457 952.534 176.57 929.149 169.196" fill="#2B2A2A"/>
  <path d="M777.413 173.085C775.878 172.713 774.504 173.659 775.97 174.051C821.734 186.289 779.733 212.896 731.782 201.897C728.17 201.069 726.518 203.171 729.668 203.969C752.254 209.691 782.587 207.175 795.641 197.575C807.724 188.688 798.402 178.18 777.413 173.085Z" fill="#2B2A2A"/>
  <path d="M671.917 171.266C670.74 170.656 668.414 171.198 669.549 171.871C690.714 184.446 671.994 198.575 636.734 201.797C633.395 202.102 635.397 204.126 638.376 203.994C679.4 202.161 695.835 183.646 671.917 171.266" fill="#2B2A2A"/>
  <path d="M1348.62 168.01C1337.18 170.755 1323.07 170.379 1312.71 167.162C1311.21 166.697 1309.18 167.322 1310.35 167.906C1319.65 172.558 1339.94 173.398 1352.08 169.64C1354.62 168.853 1351.39 167.344 1348.62 168.01Z" fill="#2B2A2A"/>
  <path d="M1300.56 112.51C1300.1 111.876 1297.14 111.773 1297.57 112.546C1302.06 120.71 1286.78 127.834 1265.03 128.152C1261.67 128.201 1262.87 129.993 1265.81 130C1290.39 130.053 1307.14 121.431 1300.56 112.51" fill="#2B2A2A"/>
  <path d="M1180.59 108.129C1179.48 107.739 1177.67 108.312 1178.77 108.785C1211.23 122.74 1193.35 144.739 1145.16 146.902C1141.63 147.06 1142.81 149.095 1145.99 148.997C1197.94 147.402 1220.6 122.138 1180.59 108.129" fill="#2B2A2A"/>
  <path d="M1039.92 131.345C1039.06 130.747 1036.27 130.974 1037.23 131.664C1048.13 139.481 1037.37 147.809 1019.69 152.326C1005.3 156.001 987.902 157.068 971.34 158.298C968.771 158.49 970.287 160.137 972.611 159.991C993.348 158.688 1015.38 156.805 1031.01 150.922C1044.83 145.724 1049.58 138.01 1039.92 131.345" fill="#2B2A2A"/>
  <path d="M874.397 150.073C863.145 152.548 851.835 154.975 840.781 157.598C838.708 158.09 841.203 159.342 843.158 158.911C854.376 156.44 865.337 153.775 876.357 151.156C878.065 150.749 876.007 149.718 874.397 150.073" fill="#2B2A2A"/>
  <path d="M1126.82 84.0884C1125.4 83.7168 1124.31 84.6113 1125.52 85.0302C1132.56 87.467 1136.88 91.0279 1136.86 94.9495C1136.86 95.9844 1140.96 96.4972 1141 95.3374C1141.13 90.6431 1136.17 86.5445 1126.82 84.0884Z" fill="#2B2A2A"/>
  <path d="M1130.26 101C1128.19 101 1128.9 102 1130.74 102C1132.81 102 1132.1 101 1130.26 101Z" fill="#2B2A2A"/>
  <path d="M1246.94 72.6608C1246.37 71.8219 1242.44 71.7223 1243.01 72.7077C1244.81 75.8357 1243.23 78.9097 1238.38 81.5513C1236.81 82.4042 1240.53 83.5522 1242.1 82.7C1247.63 79.6835 1249.35 76.2121 1246.94 72.6608" fill="#2B2A2A"/>
</g>
</svg>
