<svg width="701" height="976" viewBox="0 0 701 976" fill="none" xmlns="http://www.w3.org/2000/svg">
<path d="M285.948 960.543C278.372 967.883 269.174 974.169 258.724 975.673C241.492 978.138 224.326 966.369 216.916 950.625C209.51 934.897 210.491 916.278 215.618 899.655C220.746 883.031 229.688 867.891 238.08 852.643C244.289 841.365 250.102 829.861 255.709 818.266C274.89 822.511 310.643 833.641 339.452 860.888C333.277 879.359 325.589 897.348 316.874 914.779C308.602 931.331 299.233 947.658 285.948 960.543Z" fill="#FEFEFC"/>
<path d="M486.963 927.7C487.403 938.231 485.981 949.269 480.145 958.057C470.519 972.542 450.294 977.499 433.6 972.548C416.915 967.591 403.657 954.471 394.649 939.582C385.642 924.697 380.278 907.951 374.475 891.553C370.176 879.415 365.453 867.425 360.52 855.528C376.46 844.055 408.576 824.823 448.114 821.488C457.803 838.383 466.13 856.091 473.352 874.187C480.217 891.368 486.181 909.219 486.963 927.7Z" fill="#FEFEFC"/>
<path d="M318.234 453.783L318.258 519.513H378.709L378.684 453.775L318.234 453.783Z" fill="#FEFEFC"/>
<path d="M224.695 642.936C224.695 642.936 243.221 502.511 345.969 497.907C448.716 493.298 471.108 597.045 496.923 656.895C522.744 716.755 600.593 898.626 377.618 898.626C144.683 898.626 198.174 774.114 224.695 642.936Z" fill="#370138"/>
<path d="M375.004 712.908C374.999 718.11 370.783 722.325 365.575 722.33C360.367 722.33 356.146 718.105 356.145 712.913C356.141 707.706 360.364 703.481 365.564 703.481C370.781 703.487 375.001 707.701 375.004 712.908Z" fill="#F8A44A"/>
<path d="M333.236 711.686C333.237 716.883 329.015 721.102 323.807 721.108C318.599 721.108 314.378 716.883 314.375 711.681C314.372 706.479 318.596 702.259 323.804 702.259C329.012 702.259 333.24 706.479 333.236 711.686Z" fill="#F8A44A"/>
<path d="M246.683 698.208C246.686 703.41 242.463 707.63 237.255 707.63C232.047 707.63 227.826 703.41 227.824 698.213C227.821 693.006 232.044 688.786 237.245 688.791C242.461 688.791 246.68 693.006 246.683 698.208Z" fill="#C0DCE5"/>
<path d="M289.957 706.351C289.96 711.553 285.736 715.773 280.529 715.773C275.321 715.773 271.099 711.553 271.098 706.356C271.095 701.149 275.317 696.929 280.526 696.934C285.734 696.934 289.962 701.144 289.957 706.351Z" fill="#F8A44A"/>
<path d="M333.236 711.686C333.237 716.883 329.015 721.102 323.807 721.108C318.599 721.108 314.378 716.883 314.375 711.681C314.372 706.479 318.596 702.259 323.804 702.259C329.012 702.259 333.24 706.479 333.236 711.686Z" fill="#C0DCE5"/>
<path d="M485.961 698.167C485.956 703.369 490.186 707.589 495.393 707.589C500.6 707.589 504.825 703.364 504.82 698.167C504.82 692.965 500.595 688.74 495.388 688.745C490.181 688.745 485.956 692.96 485.961 698.167Z" fill="#C0DCE5"/>
<path d="M442.688 706.325C442.682 711.522 446.91 715.742 452.116 715.742C457.328 715.742 461.548 711.522 461.548 706.32C461.543 701.118 457.323 696.904 452.116 696.893C446.907 696.898 442.684 701.118 442.688 706.325Z" fill="#F8A44A"/>
<path d="M399.41 711.67C399.412 716.867 403.633 721.087 408.841 721.087C414.049 721.087 418.272 716.867 418.269 711.665C418.267 706.463 414.047 702.249 408.837 702.244C403.629 702.244 399.408 706.463 399.41 711.67Z" fill="#C0DCE5"/>
<path d="M454.069 607.198C455.982 599.981 455.604 591.188 449.845 586.426C445.152 582.549 437.565 582.825 433.159 587.02C428.03 591.899 427.946 599.843 426.773 606.825C425.558 614.037 422.817 620.988 418.779 627.085C416.761 630.128 413.89 634.972 417.602 638.061C420.524 640.491 425.18 638.445 428.131 637.141C436.068 633.637 442.974 627.832 447.857 620.66C450.653 616.563 452.791 612.001 454.069 607.198Z" fill="#F8A44A"/>
<path d="M258.706 607.229C256.78 600.001 257.153 591.214 262.916 586.452C267.603 582.58 275.198 582.851 279.601 587.045C284.731 591.925 284.82 599.868 285.999 606.85C287.213 614.062 289.956 621.008 294.003 627.105C296.02 630.159 298.894 634.992 295.193 638.077C292.267 640.517 287.612 638.466 284.667 637.166C276.721 633.668 269.809 627.852 264.921 620.686C262.126 616.584 259.983 612.032 258.706 607.229Z" fill="#F8A44A"/>
<path d="M344.79 570.887C344.79 570.887 323.821 588.861 326.465 614.753C329.11 640.644 360.116 645.401 373.688 631.734C387.266 618.062 383.712 593.73 369.112 576.452C369.112 576.452 362.443 566.938 355.284 566.637C355.284 566.637 350.969 565.823 344.79 570.887Z" fill="#C0DCE5"/>
<path d="M526.675 744.641C525.187 737.363 523.422 730.202 521.458 723.22C367.895 770.262 229.568 728.325 207.818 721.067C206.338 728.519 205.01 735.849 203.859 743.051C223.965 749.639 286.577 767.684 369.671 767.689C416.819 767.689 470.544 761.705 526.675 744.641Z" fill="#F8A44A"/>
<path d="M501.572 667.723C499.92 663.815 498.35 660.143 496.954 656.895C495.567 653.698 494.202 650.353 492.826 646.92C347.998 674.838 242.13 647.949 224.676 642.987C223.205 650.235 221.657 657.462 220.078 664.649C235.513 669.022 286.938 681.758 362.497 681.748C402.665 681.753 449.651 678.111 501.572 667.723Z" fill="#C0DCE5"/>
<path d="M347.887 546.371C349.045 546.366 350.214 546.345 351.412 546.31C389.852 545.179 407.748 526.714 414.954 516.014C408.939 511.917 402.427 508.388 395.353 505.564C390.12 512.326 377.522 523.461 350.751 524.239C325.133 525.072 311.131 515.344 304.546 508.597C297.767 512.024 291.565 516.167 285.855 520.812C294.386 530.832 313.19 546.371 347.887 546.371Z" fill="#F8A44A"/>
<path d="M305.698 50.4494C305.698 50.4494 36.5199 67.2146 3.47277 162.898C-29.5646 258.595 180.369 219.741 325.278 85.6478L305.698 50.4494Z" fill="#FEFEFC"/>
<path d="M51.2956 215.813C27.5613 197.737 6.55887 161.356 141.608 124.38C228.9 100.485 281.029 95.7007 311.97 97.5124C222.993 174.367 114.076 216.601 51.2956 215.813Z" fill="#FBB4B6"/>
<path d="M305.678 50.4489C305.678 50.4489 289.747 51.4525 265.27 54.3122C143.854 140.59 51.6007 151.091 9.65821 150.215C7.18156 154.293 5.0072 158.475 3.485 162.877C-29.0162 257.102 173.858 220.88 318.402 91.7909C319.815 87.8642 321.13 84.0592 322.344 80.3994L305.678 50.4489Z" fill="#D1D3D4"/>
<path d="M394.343 50.3941C394.343 50.3941 663.524 67.1552 696.633 162.844C729.731 258.519 519.779 219.665 374.789 85.5874L394.343 50.3941Z" fill="#FEFEFC"/>
<path d="M648.842 215.747C672.56 197.674 693.531 161.287 558.477 124.327C471.165 100.434 419.031 95.6445 388.098 97.4613C477.124 174.305 586.072 216.525 648.842 215.747Z" fill="#FBB4B6"/>
<path d="M394.343 50.343C394.343 50.343 410.274 51.3563 434.755 54.2181C556.251 140.54 648.493 151.07 690.441 150.213C692.922 154.291 695.096 158.475 696.625 162.887C729.233 257.098 526.338 220.796 381.663 91.6681C380.244 87.7455 378.922 83.9471 377.715 80.2853L394.343 50.343Z" fill="#D1D3D4"/>
<path d="M582.462 262.625C582.498 380.436 477.222 475.954 347.32 475.942C217.405 475.941 112.061 380.435 112.023 262.625C111.986 144.814 217.266 49.3108 347.172 49.3062C477.079 49.3092 582.426 144.822 582.462 262.625Z" fill="#FEFEFC"/>
<path d="M569.247 262.591C529.084 262.587 496.528 295.126 496.543 335.255C496.548 361.043 510.041 383.639 530.307 396.54C562.664 360.221 582.136 314.099 582.443 263.841C578.152 263.052 573.758 262.587 569.247 262.591Z" fill="#FBB3B2"/>
<path d="M195.94 335.324C195.929 295.188 163.356 262.655 123.19 262.659C119.386 262.656 115.673 263.034 112.023 263.601C112.282 313.615 131.532 359.526 163.548 395.794C183.076 382.769 195.949 360.558 195.94 335.324Z" fill="#FBB3B2"/>
<path d="M322.406 259.927C322.406 259.927 323.459 285.566 350.404 285.571C377.348 285.569 373.932 260.171 373.932 260.171C373.932 260.171 353.763 237.942 346.063 221.61C346.063 221.61 336.625 247.414 322.406 259.927Z" fill="#FEFEFC"/>
<path d="M347.637 271.068C347.333 271.123 347.024 271.11 346.713 271.039C345.532 270.741 344.817 269.539 345.107 268.361C348.207 256.065 343.913 222.233 343.867 221.89C343.719 220.685 344.643 219.543 345.78 219.422C346.984 219.267 348.095 220.13 348.25 221.334C348.437 222.757 352.686 256.343 349.392 269.435C349.167 270.311 348.47 270.92 347.637 271.068Z" fill="#C4C4C4"/>
<path d="M324.69 260.833C325.196 265.379 328.571 283.355 350.405 283.359C357.905 283.353 363.542 281.275 367.153 277.145C372.143 271.448 371.97 263.408 371.804 261.101C368.874 257.829 354.348 241.308 346.322 226.908C342.973 234.806 335.239 251.078 324.69 260.833ZM357.007 287.232C354.957 287.596 352.755 287.772 350.402 287.78C321.672 287.779 320.208 260.294 320.189 260.021C320.165 259.346 320.447 258.706 320.937 258.268C334.59 246.273 343.888 221.107 343.985 220.85C344.292 220.019 345.071 219.485 345.96 219.401C346.851 219.37 347.679 219.864 348.055 220.671C355.534 236.52 375.37 258.473 375.566 258.692C375.872 259.025 376.064 259.432 376.121 259.877C376.186 260.366 377.638 271.882 370.482 280.054C367.186 283.814 362.67 286.223 357.007 287.232Z" fill="#C4C4C4"/>
<path d="M259.141 72.1863C256.49 79.1693 256.539 87.3 260.002 93.9274C263.456 100.549 270.502 105.366 277.973 105.456C271.587 118.204 274.102 133.901 280.636 146.591C282.636 150.469 285.014 154.205 288.081 157.319C292.846 162.161 299.06 165.29 305.318 167.919C313.315 171.283 321.912 173.995 330.535 173.096C339.158 172.19 347.804 166.904 350.373 158.629C335.258 160.279 319.516 155.118 308.309 144.828C307.774 144.341 307.252 143.844 306.761 143.311C305.455 141.9 304.389 140.283 303.606 138.533C301.867 134.654 301.588 130.297 301.353 126.053C301.103 121.564 300.881 117.019 301.813 112.627C302.745 108.227 304.972 103.933 308.718 101.445C299.906 100.952 291.244 98.0863 283.878 93.2353C279.823 90.5664 276.075 87.1931 273.944 82.8305C271.906 78.6603 271.481 73.9045 271.096 69.2836C270.852 66.2878 271.395 63.5631 271.47 60.6373C271.535 57.6165 271.51 56.8891 268.494 58.822C264.262 61.5161 260.87 67.6525 259.141 72.1863Z" fill="#D8D8D8"/>
<path d="M406.732 55.7433C398.381 55.4226 390.134 52.6718 383.257 47.9303C368.636 37.8172 361.118 19.7423 346.552 9.55971C335.547 1.87171 319.957 -0.236569 308.672 7.02848C297.387 14.2935 293.38 31.9406 302.473 41.8128C292.623 42.1775 282.741 46.296 276.355 53.8012C269.962 61.3079 267.521 72.2779 271.089 81.4612C274.517 90.2814 283.062 96.5779 292.323 98.5206C301.585 100.471 311.392 98.4418 319.834 94.1616C308.034 97.8372 298.774 108.617 296.927 120.825C295.078 133.026 300.747 146.061 310.932 153.051C318.462 158.229 327.85 160.083 336.989 160.218C354.785 160.493 372.904 154.378 385.766 142.092C398.629 129.812 405.627 111.177 402.435 93.6834" fill="#FEFEFC"/>
<path d="M406.702 56.4927C399.988 56.3434 393.308 54.6728 387.273 51.633C381.196 48.6081 376.003 44.0517 371.501 39.1337C362.497 29.3426 355.39 17.8324 344.737 10.9404C334.398 4.22387 319.988 2.7345 310.12 9.48591C300.551 15.8183 297.415 31.5632 305.038 39.3526L305.086 39.4114L305.229 39.5874C306.466 41.1147 306.229 43.3443 304.709 44.5785C304.087 45.0695 303.35 45.3355 302.606 45.356C293.86 45.6731 285.085 49.2955 279.422 55.7014C273.81 61.9718 271.453 71.411 274.075 79.2322C276.633 87.0647 284.256 93.0548 292.557 94.9371C300.989 96.8787 310.242 95.0522 318.224 91.0037L320.888 97.5554C313.564 99.8444 307.211 105.32 303.546 112.156C299.772 118.972 299.169 127.143 301.593 134.566C303.973 141.99 309.122 148.48 316.049 151.996C322.992 155.643 331.319 156.834 339.558 156.652C356.016 156.336 372.624 150.214 384.167 138.663C395.614 127.239 401.837 110.161 398.941 94.3254C398.581 92.3955 399.856 90.5408 401.782 90.191C403.712 89.8324 405.56 91.1009 405.92 93.0308L405.924 93.0523C409.246 111.568 402.14 130.685 389.187 143.675C376.091 156.743 357.774 163.378 339.698 163.75C330.693 163.912 321.25 162.711 312.748 158.28C304.151 153.905 297.693 145.781 294.835 136.725C291.827 127.703 292.609 117.193 297.291 108.804C301.819 100.397 309.507 93.6972 318.774 90.7787C320.642 90.1925 322.635 91.2262 323.229 93.0916C323.754 94.7755 322.96 96.5596 321.439 97.3304C312.296 101.952 301.482 104.242 290.966 101.843C280.593 99.4485 270.945 92.1612 267.338 81.4613C263.867 70.8125 266.954 59.108 274.107 51.0029C281.325 42.8865 291.877 38.6713 302.342 38.2723L299.871 44.2225L299.794 44.1315C294.423 38.1137 293.232 29.687 294.854 22.5813C296.448 15.3986 300.648 8.75248 307.004 4.7169C319.767 -3.14706 335.883 -0.430722 347.133 7.37058C358.583 15.4645 365.218 27.4247 373.675 37.2087C377.881 42.1423 382.633 46.6127 388.298 49.6735C393.932 52.7696 400.293 54.6242 406.755 54.99C407.177 55.0114 407.494 55.3659 407.471 55.7807C407.447 56.1879 407.107 56.5025 406.702 56.4927Z" fill="#2D0934"/>
<path d="M302.277 266.763C306.899 264.529 311.614 261.644 315.978 258.59C320.368 255.509 324.541 252.1 328.371 248.357C332.142 244.572 335.521 240.439 338.365 235.945C341.1 231.389 343.082 226.458 344.283 221.302L344.282 221.294C344.494 220.308 345.475 219.693 346.461 219.899C347.046 220.034 347.517 220.457 347.749 220.961C352.548 231.554 359.265 241.544 367.237 249.989C371.194 254.28 375.704 257.943 380.407 261.22C385.116 264.533 390.333 266.883 395.613 268.878L395.837 268.957C397.673 269.654 398.591 271.701 397.902 273.533C397.213 275.365 395.166 276.29 393.332 275.601C393.285 275.587 393.221 275.561 393.179 275.539C387.36 273.042 381.737 270.131 376.791 266.291C371.853 262.489 367.219 258.303 363.267 253.578C355.26 244.183 348.913 233.709 344.379 222.255L347.838 221.916C346.849 227.595 344.963 233.098 342.261 238.179C339.449 243.189 336.047 247.819 332.238 252.059C328.378 256.256 324.159 260.083 319.696 263.588C315.181 267.095 310.606 270.261 305.43 273.124C303.709 274.072 301.549 273.441 300.6 271.729C299.651 270.009 300.275 267.859 301.989 266.911C302.043 266.879 302.099 266.855 302.146 266.824L302.277 266.763Z" fill="#2D0934"/>
<path d="M318.203 193.591C318.203 193.591 349.366 197.244 373.92 193.591L346.074 221.613L318.203 193.591Z" fill="#FBB3B2"/>
<path d="M397.714 205.164C401.221 199.909 405.724 195.747 410.912 192.195C416.103 188.709 422.129 186.3 428.443 185.079C434.764 184.11 441.437 184.11 447.568 185.969C450.72 186.632 453.548 188.07 456.464 189.261C459.257 190.692 461.85 192.418 464.418 194.112C466.049 195.188 466.504 197.385 465.425 199.018C464.469 200.473 462.612 200.983 461.062 200.31L460.684 200.146C455.584 197.932 450.653 195.621 445.448 194.643C440.312 193.377 435.031 193.137 429.869 193.943C424.656 194.505 419.546 196.229 414.67 198.636C409.813 201.024 405.072 204.227 400.87 207.731L400.714 207.864C399.855 208.577 398.571 208.462 397.849 207.597C397.252 206.889 397.232 205.899 397.714 205.164Z" fill="#2D0934"/>
<path d="M393.203 178.273C399.12 168.012 406.236 158.487 415.212 150.459C419.742 146.532 424.638 142.815 430.353 140.297C436.036 137.77 442.393 136.332 448.91 136.628C450.867 136.72 452.391 138.368 452.299 140.334C452.217 142.29 450.555 143.802 448.592 143.719C448.524 143.716 448.462 143.705 448.403 143.708L448.244 143.692C443.09 143.16 437.774 143.942 432.679 145.834C427.558 147.702 422.838 150.812 418.365 154.222C409.485 161.194 401.865 170.122 395.569 179.636L395.521 179.704C395.11 180.33 394.259 180.504 393.632 180.093C393.032 179.699 392.849 178.888 393.203 178.273Z" fill="#2D0934"/>
<path d="M290.945 207.757C286.74 204.256 281.992 201.061 277.141 198.669C272.265 196.266 267.151 194.533 261.938 193.967C256.773 193.162 251.495 193.399 246.365 194.678C241.151 195.651 236.221 197.962 231.131 200.175L230.749 200.34C228.961 201.122 226.871 200.299 226.087 198.504C225.39 196.903 225.975 195.074 227.386 194.143C229.959 192.446 232.55 190.715 235.336 189.286C238.249 188.103 241.084 186.657 244.239 185.998C250.363 184.132 257.037 184.139 263.361 185.111C269.677 186.332 275.705 188.747 280.893 192.229C286.084 195.77 290.585 199.928 294.097 205.195C294.72 206.129 294.466 207.392 293.533 208.021C292.763 208.523 291.778 208.445 291.102 207.886L290.945 207.757Z" fill="#2D0934"/>
<path d="M296.24 179.656C289.931 170.147 282.313 161.214 273.426 154.254C268.96 150.837 264.227 147.723 259.112 145.863C254.014 143.97 248.703 143.183 243.546 143.72L243.399 143.732C241.446 143.93 239.699 142.516 239.499 140.558C239.301 138.615 240.716 136.869 242.668 136.671C242.733 136.66 242.808 136.661 242.875 136.657C249.39 136.363 255.75 137.793 261.432 140.32C267.151 142.842 272.043 146.555 276.578 150.482C285.558 158.508 292.678 168.038 298.606 178.302C298.984 178.951 298.758 179.783 298.108 180.16C297.486 180.525 296.682 180.332 296.292 179.737L296.24 179.656Z" fill="#2D0934"/>
<path d="M430.758 695.185C430.758 695.185 464.218 784.313 471.547 815.084C478.882 845.856 499.567 864.182 530.548 860.996C561.514 857.799 471.854 728.545 455.364 715.297C455.364 715.297 436.2 696.801 430.758 695.185Z" fill="#BCBEC0"/>
<path d="M167.281 857.963C167.281 857.963 222.838 859.891 242.916 819.376C263.002 778.855 273.617 723.471 297.786 706.213C297.786 706.213 221.498 750.385 194.784 779.945C168.071 809.514 167.281 857.963 167.281 857.963Z" fill="#BCBEC0"/>
<path d="M235.982 766.037C232.394 783.054 229.297 800.353 222.334 816.296C215.378 832.235 203.972 846.986 188.085 854.086C172.198 861.19 151.485 858.929 140.028 845.825C133.081 837.887 130.212 827.135 129.255 816.629C127.587 798.215 131.138 779.73 135.668 761.797C141.941 736.928 150.153 712.499 161.152 689.323C170.948 668.7 182.89 649.171 194.818 629.693C208.355 607.551 222.042 585.239 239.819 566.335C247.598 558.059 256.32 550.371 266.705 545.767C277.101 541.174 289.429 539.998 299.796 544.663C334.639 560.36 300.671 592.487 289.972 612.19C273.325 642.859 260.486 675.482 250.458 708.862C244.804 727.701 240.035 746.805 235.982 766.037Z" fill="#370138"/>
<path d="M129.24 816.634C130.19 827.14 133.059 837.887 140.013 845.825C151.468 858.924 172.182 861.185 188.07 854.086C203.958 846.991 215.356 832.24 222.32 816.296C229.283 800.358 232.38 783.06 235.969 766.037C238.62 753.439 241.714 740.933 245.035 728.488C227.717 719.215 193.322 704.356 153.698 706.238C146.323 724.269 140.415 742.907 135.646 761.802C131.123 779.735 127.571 798.21 129.24 816.634Z" fill="#FEFEFC"/>
<path d="M258.889 683.032C256.376 690.172 254.071 697.39 251.844 704.627C236.554 695.205 205.588 679.232 168.062 675.641C171.78 668.587 175.708 661.631 179.739 654.746C214.046 659.728 242.131 673.17 258.889 683.032Z" fill="#F8A44A"/>
<path d="M273.841 645.555C257.21 634.271 231.875 619.233 205.871 611.873C209.968 605.403 214.193 599.009 218.598 592.758C243.656 600.937 266.941 614.369 283.382 625.3C280.039 631.975 276.858 638.721 273.841 645.555Z" fill="#C0DCE5"/>
<path d="M468.186 760.784C469.551 778.119 470.385 795.683 475.229 812.384C480.078 829.094 489.479 845.191 504.318 854.29C519.151 863.39 539.979 863.835 553.022 852.326C560.94 845.349 565.17 835.063 567.472 824.777C571.502 806.721 570.367 787.939 568.193 769.577C565.175 744.104 560.188 718.811 552.275 694.413C545.227 672.69 535.897 651.79 526.598 630.921C516.021 607.213 505.335 583.321 490.149 562.279C483.495 553.061 475.853 544.305 466.14 538.407C456.426 532.504 444.359 529.732 433.486 533.016C396.91 544.069 426.44 580.324 434.502 601.249C447.055 633.806 455.572 667.82 461.209 702.223C464.39 721.629 466.651 741.184 468.186 760.784Z" fill="#370138"/>
<path d="M567.472 824.767C565.17 835.053 560.935 845.349 553.017 852.326C539.964 863.83 519.146 863.39 504.302 854.285C489.464 845.191 480.058 829.089 475.214 812.384C470.37 795.678 469.531 778.113 468.17 760.774C467.163 747.94 465.71 735.143 464.027 722.376C482.395 715.415 518.404 705.139 557.462 712.141C562.449 730.964 565.902 750.217 568.193 769.566C570.367 787.934 571.502 806.721 567.472 824.767Z" fill="#FEFEFC"/>
<path d="M456.18 675.508C457.75 682.925 459.111 690.372 460.384 697.84C476.757 690.479 509.518 678.638 547.2 679.948C544.423 672.47 541.425 665.068 538.32 657.708C503.657 658.199 474.072 667.897 456.18 675.508Z" fill="#F8A44A"/>
<path d="M446.214 636.425C464.16 627.397 491.233 615.76 517.964 611.822C514.732 604.871 511.371 597.986 507.811 591.219C481.904 596.078 457.081 606.395 439.371 615.095C441.819 622.149 444.104 629.259 446.214 636.425Z" fill="#C0DCE5"/>
<path d="M36.0112 92.5392C35.1493 92.6927 34.2307 92.3182 33.7463 91.5311C33.1039 90.4876 33.421 89.124 34.4573 88.4841C60.4284 72.4268 88.5979 60.4368 118.191 52.8611C119.441 52.4146 120.574 53.2734 120.873 54.4452C121.182 55.6298 120.47 56.8318 119.29 57.1316C90.1262 64.6009 62.3674 76.421 36.781 92.2456C36.538 92.3929 36.2792 92.4916 36.0112 92.5392Z" fill="#FEFEFC"/>
<path d="M53.6058 64.8637C52.6933 65.0259 51.7439 64.6049 51.2841 63.7461C50.6959 62.6705 51.0928 61.338 52.1628 60.759C61.2582 55.8241 70.8692 51.813 80.7221 48.8197C81.8208 48.4003 83.1246 49.1312 83.4739 50.2939C83.8248 51.4636 83.1691 52.6856 81.9998 53.0431C72.4287 55.9418 63.1052 59.8496 54.2733 64.6254C54.0569 64.7533 53.8303 64.8238 53.6058 64.8637Z" fill="#FEFEFC"/>
<path d="M681.376 91.2548C680.926 91.3351 680.445 91.2783 680.005 91.0589C653.024 77.6931 624.283 68.5235 594.56 63.8229C593.363 63.6331 592.529 62.4966 592.729 61.2966C592.918 60.0977 594.043 59.2624 595.245 59.4593C625.413 64.2377 654.589 73.531 681.974 87.1086C683.064 87.6539 683.509 88.971 682.966 90.0686C682.644 90.7234 682.041 91.1361 681.376 91.2548Z" fill="#FEFEFC"/>
<path d="M661.254 65.3493C660.84 65.4229 660.41 65.3805 660.001 65.2061C650.799 61.2742 641.137 58.2671 631.301 56.2616C630.109 56.0186 629.332 54.8499 629.582 53.6627C629.823 52.455 630.999 51.6852 632.181 51.9384C642.308 53.9962 652.257 57.102 661.735 61.1417C662.855 61.6225 663.382 62.9243 662.896 64.0419C662.599 64.7519 661.965 65.2229 661.254 65.3493Z" fill="#FEFEFC"/>
<path d="M109.637 787.024C109.492 787.049 109.331 787.065 109.181 787.06C107.956 787.024 107.003 786.001 107.04 784.783C108.928 723.108 124.806 675.794 154.234 644.158C155.085 643.274 156.471 643.212 157.359 644.041C158.254 644.869 158.31 646.271 157.483 647.161C128.791 677.989 113.31 724.34 111.451 784.927C111.422 785.975 110.651 786.845 109.637 787.024Z" fill="#FEFEFC"/>
<path d="M94.7234 756.293C94.5786 756.319 94.4374 756.324 94.2799 756.324C93.0641 756.293 92.0999 755.286 92.1296 754.068C92.7582 728.35 99.1462 702.581 110.632 679.544C111.177 678.454 112.501 677.999 113.593 678.551C114.69 679.088 115.128 680.413 114.585 681.513C103.393 703.973 97.1591 729.102 96.5422 754.181C96.5146 755.234 95.7371 756.114 94.7234 756.293Z" fill="#FEFEFC"/>
<path d="M82.7519 703.666C82.3034 703.747 81.8226 703.691 81.3955 703.476C80.2922 702.944 79.8467 701.625 80.3832 700.525L92.2985 676.163C92.8493 675.063 94.1828 674.628 95.2488 675.155C96.3515 675.682 96.8058 677.012 96.261 678.101L84.3458 702.464C84.023 703.128 83.4184 703.548 82.7519 703.666Z" fill="#FEFEFC"/>
<path d="M587.061 802.143C586.867 802.179 586.657 802.19 586.442 802.164C585.235 802.036 584.355 800.957 584.473 799.745C588.989 755.424 580.667 708.985 561.016 668.992C560.479 667.897 560.929 666.572 562.018 666.04C563.138 665.478 564.443 665.963 564.98 667.053C584.984 707.778 593.47 755.066 588.872 800.195C588.764 801.197 588.002 801.98 587.061 802.143Z" fill="#FEFEFC"/>
<path d="M603.552 749.557C603.465 749.572 603.378 749.593 603.286 749.582C602.068 749.659 601.03 748.733 600.959 747.506C599.787 727.061 595.194 707.098 587.312 688.193C586.841 687.063 587.373 685.774 588.504 685.308C589.588 684.817 590.918 685.369 591.389 686.5C599.47 705.87 604.166 726.315 605.368 747.26C605.434 748.385 604.636 749.368 603.552 749.557Z" fill="#FEFEFC"/>
<path d="M603.62 694.73C602.52 694.924 601.425 694.264 601.108 693.16C599.098 686.127 596.172 679.359 592.408 673.042C591.784 671.999 592.132 670.644 593.18 670.014C594.208 669.421 595.579 669.738 596.208 670.792C600.152 677.436 603.231 684.546 605.359 691.947C605.686 693.124 605.011 694.341 603.845 694.684C603.773 694.704 603.696 694.714 603.62 694.73Z" fill="#FEFEFC"/>
</svg>
