<svg width="956" height="1203" viewBox="0 0 956 1203" fill="none" xmlns="http://www.w3.org/2000/svg">
<path d="M388.057 1182.42C388.057 1193.51 324.883 1202.5 246.947 1202.5C169.025 1202.5 105.844 1193.51 105.844 1182.42C105.844 1171.33 169.025 1162.34 246.947 1162.34C324.883 1162.34 388.057 1171.33 388.057 1182.42Z" fill="#D8D8D8"/>
<path d="M955.426 1170.81C955.426 1186.98 831.226 1200.08 678.021 1200.08C524.82 1200.08 400.625 1186.98 400.625 1170.81C400.625 1154.65 524.82 1141.55 678.021 1141.55C831.226 1141.55 955.426 1154.65 955.426 1170.81Z" fill="#D8D8D8"/>
<path d="M314.386 748.804C298.053 747.565 281.602 745.814 265.352 747.904C249.109 750.002 232.775 756.419 222.173 768.907C211.577 781.395 208.158 800.694 216.989 814.498C222.339 822.86 231.308 828.28 240.554 831.907C256.763 838.269 274.411 839.924 291.81 840.553C315.951 841.426 340.194 840.436 364.037 836.601C385.263 833.181 406.06 827.526 426.809 821.884C450.389 815.474 474.162 808.987 495.935 797.898C505.465 793.045 514.718 787.196 521.605 779.014C528.498 770.838 532.809 760.012 531.321 749.42C526.304 713.812 488.315 736.039 467.684 740.518C435.578 747.489 402.704 750.5 369.878 750.777C351.365 750.93 332.844 750.21 314.386 748.804Z" fill="#29042B"/>
<path d="M240.555 831.91C231.308 828.283 222.339 822.862 216.989 814.493C208.158 800.697 211.577 781.391 222.173 768.903C232.776 756.422 249.109 749.998 265.352 747.907C281.602 745.81 298.053 747.568 314.387 748.807C326.471 749.721 338.589 750.219 350.714 750.496C354.542 768.584 358.93 803.563 346.79 838.867C328.547 840.785 310.151 841.214 291.811 840.556C274.412 839.926 256.763 838.265 240.555 831.91Z" fill="#FEFEFC"/>
<path d="M395.458 749.964C388.343 750.351 381.208 750.538 374.086 750.649C378.578 766.937 384.876 799.112 378.232 833.96C385.589 832.457 392.911 830.734 400.199 828.899C404.725 796.6 399.963 767.692 395.458 749.964Z" fill="#F8A44A"/>
<path d="M433.277 746.33C439.091 764.321 446.026 791.173 445.832 816.599C452.76 814.598 459.66 812.466 466.463 810.133C465.667 785.338 459.646 760.77 454.102 743.042C447.182 744.309 440.247 745.409 433.277 746.33Z" fill="#C0DCE5"/>
<path d="M15.2927 747.811C15.2927 747.811 -46.4623 951.934 78.2247 1109.57C202.897 1267.21 424.345 1169.48 455.89 1024.11C487.429 878.754 363.289 735.046 196.599 683.114C196.599 683.114 113.694 648.835 65.8987 676.552C65.8987 676.552 34.4707 689.192 15.2927 747.811Z" fill="#96C84C"/>
<path d="M149.548 867.671C160.511 884.852 162.345 903.294 153.638 908.844C144.925 914.404 128.979 904.984 118.016 887.794C107.054 870.613 105.228 852.179 113.934 846.62C122.641 841.061 138.585 850.49 149.548 867.671Z" fill="#FEFEFC"/>
<path d="M71.3987 933.144C82.3607 950.324 84.1877 968.764 75.4817 974.324C66.7687 979.884 50.8227 970.454 39.8597 953.274C28.8967 936.084 27.0696 917.654 35.7836 912.094C44.4826 906.534 60.4357 915.964 71.3987 933.144Z" fill="#FEFEFC"/>
<path d="M197.278 837.21C208.241 854.391 224.187 863.82 232.893 858.261C241.6 852.702 239.779 834.268 228.817 817.08C217.854 799.898 201.901 790.477 193.195 796.029C184.481 801.587 186.316 820.029 197.278 837.21Z" fill="#FEFEFC"/>
<path d="M289.574 793.895C300.537 811.076 316.483 820.504 325.189 814.945C333.896 809.387 332.069 790.953 321.106 773.771C310.143 756.583 294.197 747.162 285.491 752.72C276.778 758.272 278.612 776.713 289.574 793.895Z" fill="#FEFEFC"/>
<path d="M91.4609 1123.98C98.5749 1131.62 105.891 1138.59 113.476 1144.8C156.856 1101.33 277.494 991.894 453.485 922.944C451.014 913.244 448.045 903.644 444.37 894.197C259.984 965.744 136.37 1078.45 91.4609 1123.98Z" fill="#FEFEFC"/>
<path d="M44.2344 1056.82C49.0444 1065.91 54.2284 1074.96 60.0564 1083.9C114.198 1029.42 254.539 902.584 425.527 855.645C420.294 846.646 414.543 837.847 408.287 829.25C238.663 878.406 102.723 998.354 44.2344 1056.82Z" fill="#FEFEFC"/>
<path d="M269.636 713.347C256.998 706.826 244.063 700.721 230.657 695.342C121.515 738.593 47.157 794.214 1.07104 837.805C0.213037 851.442 -0.0429644 866.186 0.379036 881.789C43.482 836.192 129.218 763.687 269.636 713.347Z" fill="#FEFEFC"/>
<path d="M78.2177 1109.57C199.396 1262.77 411.438 1174.61 452.257 1036.11C429.972 1045.65 407.452 1054.42 383.796 1059.55C306.995 1076.24 224.443 1052.33 162.093 1004.45C99.7417 956.584 56.5486 886.713 31.7026 812.124C24.5536 790.665 19.4047 768.555 15.9237 746.196C15.7227 746.784 15.4937 747.213 15.2937 747.809C15.2937 747.809 -46.4613 951.934 78.2177 1109.57Z" fill="#D1D3D4"/>
<path d="M336.958 843.064C397.911 852.755 430.992 881.082 448.745 906.014C425.359 835.768 369.57 772.463 296.367 728.049L209.324 747.265C209.324 747.265 219.926 824.457 336.958 843.064Z" fill="#D1D3D4"/>
<path d="M685.302 991.824C685.399 1008.29 689.544 1026.93 700.576 1039.59C711.532 1052.18 728.689 1058.07 745.368 1058.55C762.041 1059.03 778.464 1054.66 794.368 1049.6C803.718 1046.63 813.058 1043.36 821.578 1038.49C831.138 1033.03 839.448 1025.67 847.698 1018.36C851.318 1015.14 855.048 1011.79 857.098 1007.39C859.448 1002.36 859.318 996.544 858.568 991.044C857.378 982.324 853.558 972.524 845.118 970.084C839.868 968.574 834.288 970.394 829.128 972.204C818.018 976.094 806.898 979.984 795.787 983.874C790.188 985.834 784.07 987.804 778.45 985.904C771.384 983.504 767.577 975.684 766.581 968.294C765.591 960.894 766.629 953.334 765.563 945.944C762.2 922.834 738.779 908.064 716.875 914.624C710.203 916.624 703.324 918.724 697.912 923.114C678.644 938.744 685.177 970.464 685.302 991.824Z" fill="#FEFEFC"/>
<path d="M793.05 1008.5C804.39 993.334 818.51 979.934 834.82 970.454C832.89 970.964 830.98 971.554 829.13 972.204C818.01 976.094 806.9 979.984 795.791 983.874C790.192 985.834 784.067 987.804 778.454 985.894C771.388 983.504 767.575 975.684 766.585 968.284C765.581 960.904 766.633 953.334 765.561 945.944C762.204 922.834 738.777 908.064 716.879 914.624C710.201 916.624 703.328 918.724 697.916 923.114C678.648 938.744 685.182 970.464 685.306 991.824C685.396 1008.29 689.549 1026.93 700.58 1039.6C711.536 1052.18 728.686 1058.07 745.366 1058.54C752.681 1058.76 759.934 1058 767.125 1056.69C768.793 1051.86 770.343 1047.08 772.191 1043.28C778.115 1031.11 784.939 1019.35 793.05 1008.5Z" fill="#D1D3D4"/>
<path d="M822.147 991.054C825.717 977.614 834.617 963.104 849.057 974.174C858.737 981.604 859.417 994.324 861.377 1005.48C864.287 1021.92 865.187 1038.66 865.637 1055.32C866.507 1086.42 866.147 1117.55 864.577 1148.62C831.857 1159.79 796.654 1163.62 762.305 1159.75C759.142 1159.39 755.765 1158.88 753.405 1156.74C751.882 1155.37 750.955 1153.46 750.111 1151.59C744.166 1138.5 740.151 1123.25 745.564 1109.94C750.187 1098.54 761.392 1090.5 773.469 1088.14C785.539 1085.79 798.252 1088.65 809.087 1094.48C811.137 1059.73 813.227 1024.7 822.147 991.054Z" fill="#FEFEFC"/>
<path d="M493.617 661.203L521.349 716.547L572.197 691.052L544.465 635.715L493.617 661.203Z" fill="#FEFEFC"/>
<path d="M465.37 840.073C465.37 840.073 443.866 708.409 535.146 676.303C626.425 644.191 674.809 731.634 714.341 778.582C753.873 825.522 873.451 968.324 672.637 1028.99C462.858 1092.38 477.164 965.554 465.37 840.073Z" fill="#370138"/>
<path d="M672.635 1028.99C783.632 995.454 796.726 936.834 779.57 883.168C637.643 974.194 521.345 975.064 480.844 971.794C497.993 1033.95 541.581 1068.59 672.635 1028.99Z" fill="#FEFEFC"/>
<path d="M500.214 883.902C501.626 888.595 498.975 893.544 494.283 894.964C489.591 896.376 484.642 893.724 483.223 889.031C481.812 884.338 484.462 879.388 489.148 877.976C493.84 876.55 498.795 879.208 500.214 883.902Z" fill="#F8A44A"/>
<path d="M541.402 879.474C542.814 884.168 540.163 889.117 535.477 890.536C530.785 891.948 525.83 889.297 524.411 884.604C522.999 879.91 525.65 874.961 530.335 873.549C535.028 872.123 539.983 874.781 541.402 879.474Z" fill="#F8A44A"/>
<path d="M619.771 862.26C621.183 866.953 618.533 871.902 613.847 873.322C609.155 874.734 604.199 872.082 602.788 867.389C601.369 862.696 604.026 857.746 608.712 856.334C613.404 854.908 618.353 857.566 619.771 862.26Z" fill="#F8A44A"/>
<path d="M581.827 872.511C583.238 877.204 580.588 882.154 575.902 883.573C571.21 884.992 566.255 882.334 564.836 877.641C563.424 872.947 566.075 867.998 570.76 866.585C575.452 865.166 580.408 867.818 581.827 872.511Z" fill="#F8A44A"/>
<path d="M500.214 883.902C501.626 888.595 498.975 893.544 494.283 894.964C489.591 896.376 484.642 893.724 483.223 889.031C481.812 884.338 484.462 879.388 489.148 877.976C493.84 876.55 498.795 879.208 500.214 883.902Z" fill="#C0DCE5"/>
<path d="M541.402 879.474C542.814 884.168 540.163 889.117 535.477 890.536C530.785 891.948 525.83 889.297 524.411 884.604C522.999 879.91 525.65 874.961 530.335 873.549C535.028 872.123 539.983 874.781 541.402 879.474Z" fill="#F8A44A"/>
<path d="M581.827 872.511C583.238 877.204 580.588 882.154 575.902 883.573C571.21 884.992 566.255 882.334 564.836 877.641C563.424 872.947 566.075 867.998 570.76 866.585C575.452 865.166 580.408 867.818 581.827 872.511Z" fill="#C0DCE5"/>
<path d="M715.675 818.798C717.094 823.492 722.042 826.143 726.734 824.724C731.42 823.312 734.077 818.355 732.659 813.662C731.247 808.975 726.291 806.317 721.599 807.736C716.914 809.155 714.256 814.105 715.675 818.798Z" fill="#C0DCE5"/>
<path d="M678.928 837.919C680.34 842.613 685.296 845.264 689.988 843.845C694.673 842.433 697.325 837.483 695.913 832.79C694.494 828.097 689.546 825.438 684.854 826.857C680.168 828.277 677.51 833.226 678.928 837.919Z" fill="#F8A44A"/>
<path d="M641.413 854.509C642.825 859.202 647.78 861.853 652.473 860.434C657.158 859.015 659.816 854.066 658.397 849.372C656.978 844.686 652.03 842.028 647.337 843.447C642.652 844.859 639.994 849.815 641.413 854.509Z" fill="#C0DCE5"/>
<path d="M662.202 745.441C661.966 738.408 659.233 730.586 652.748 727.865C647.467 725.65 640.712 727.955 637.882 732.933C634.594 738.734 636.678 745.919 637.522 752.53C638.394 759.362 637.813 766.375 635.826 772.972C634.843 776.274 633.57 781.417 637.75 783.189C641.045 784.587 644.685 781.472 646.983 779.499C653.184 774.183 657.821 767.067 660.271 759.272C661.676 754.814 662.354 750.121 662.202 745.441Z" fill="#F8A44A"/>
<path d="M486.27 798.599C482.581 792.612 480.526 784.582 484.415 778.718C487.585 773.956 494.492 772.128 499.607 774.717C505.552 777.722 507.794 784.859 510.749 790.833C513.808 797.007 518.168 802.524 523.47 806.92C526.12 809.121 530.024 812.7 527.525 816.487C525.56 819.484 520.805 818.903 517.802 818.529C509.69 817.539 501.89 814.175 495.537 809.045C491.897 806.103 488.727 802.58 486.27 798.599Z" fill="#F8A44A"/>
<path d="M553.92 742.423C553.92 742.423 539.926 764.339 549.345 786.961C558.765 809.583 587.985 805.437 596.49 789.419C605.003 773.407 595.182 752.432 577.333 740.823C577.333 740.823 568.738 734.06 562.211 735.735C562.211 735.735 558.1 736.179 553.92 742.423Z" fill="#C0DCE5"/>
<path d="M764.98 849.601C761.665 843.447 758.135 837.466 754.461 831.713C628.971 915.894 493.003 915.734 471.445 915.114C472.137 922.234 472.933 929.204 473.86 936.004C493.758 936.474 555.049 935.704 629.871 913.094C672.323 900.266 719.074 880.26 764.98 849.601Z" fill="#F8A44A"/>
<path d="M721.441 787.077C718.894 784.003 716.479 781.123 714.34 778.576C712.222 776.07 710.077 773.419 707.911 770.705C585.086 835.277 482.442 839.839 465.375 840.123C466.026 847.059 466.593 853.988 467.126 860.904C482.214 860.641 531.982 858.121 600.021 837.561C636.197 826.631 677.514 810.571 721.441 787.077Z" fill="#C0DCE5"/>
<path d="M550.021 719.465C551.059 719.154 552.111 718.814 553.177 718.454C587.484 706.977 598.585 685.462 602.163 673.853C595.63 671.798 588.806 670.385 581.664 669.762C578.798 677.287 570.479 690.751 546.582 698.746C523.743 706.465 508.482 701.495 500.717 697.21C495.547 702.145 491.09 707.565 487.207 713.304C497.623 720.019 518.78 728.907 550.021 719.465Z" fill="#F8A44A"/>
<path d="M491.719 829.246C525.445 802.734 532.331 755.281 532.331 755.281C528.462 753.488 495.477 761.926 466.056 770.039C459.973 807.046 465.364 840.073 465.364 840.073C470.548 895.251 470.707 950.674 487.068 990.084C479.178 944.334 466.319 849.218 491.719 829.246Z" fill="#D1D3D4"/>
<path d="M731.688 911.094C747.267 902.874 763.247 893.64 779.574 883.167C777.117 875.49 774.051 867.923 770.556 860.537C767.082 862.607 763.67 864.788 760.292 867.003C744.623 877.276 733.342 891.833 731.688 911.094Z" fill="#D1D3D4"/>
<path d="M731.657 911.284C731.18 917.144 731.782 923.094 733.54 928.704C737.941 942.694 749.437 954.254 763.417 958.724C761.535 961.544 761.853 965.434 763.576 968.344C764.649 970.154 766.206 971.594 767.95 972.794C768.103 972.604 768.248 972.404 768.4 972.214C769.12 971.254 769.826 970.274 770.497 969.304C770.871 968.764 771.245 968.234 771.598 967.684C772.269 966.674 772.906 965.654 773.529 964.634C773.833 964.134 774.144 963.634 774.435 963.124C775.086 961.994 775.695 960.864 776.29 959.724C776.498 959.314 776.719 958.924 776.92 958.524C777.612 957.134 778.255 955.744 778.858 954.344C778.934 954.184 779.01 954.024 779.079 953.864C780.456 950.634 781.598 947.374 782.533 944.084C782.553 944.004 782.567 943.934 782.588 943.854C783.017 942.324 783.405 940.784 783.737 939.254C783.799 938.964 783.854 938.684 783.91 938.404C784.194 937.064 784.45 935.714 784.657 934.364C784.72 934.014 784.768 933.664 784.816 933.314C785.003 932.014 785.169 930.724 785.301 929.424C785.342 929.064 785.37 928.694 785.405 928.334C785.522 927.024 785.612 925.724 785.675 924.414C785.689 924.074 785.702 923.724 785.716 923.384C785.758 922.024 785.778 920.664 785.772 919.304C785.765 919.024 785.772 918.744 785.765 918.464C785.737 916.964 785.689 915.464 785.599 913.974C785.585 913.834 785.585 913.704 785.571 913.564C784.92 903.394 782.775 893.196 779.57 883.172V883.165C763.237 893.646 747.264 902.874 731.685 911.094C731.678 911.154 731.664 911.214 731.657 911.284Z" fill="#D1D3D4"/>
<path d="M319.448 712.546C303.627 708.303 287.778 703.533 271.431 702.592C255.077 701.643 237.837 704.924 225.11 715.232C212.382 725.539 205.455 743.877 211.58 759.078C215.289 768.285 223.096 775.277 231.519 780.551C246.274 789.8 263.306 794.694 280.29 798.529C303.842 803.852 327.857 807.369 351.997 808.012C373.5 808.587 394.976 806.877 416.417 805.174C440.771 803.236 465.334 801.263 488.789 794.396C499.045 791.392 509.219 787.356 517.503 780.593C525.781 773.823 532.03 763.986 532.522 753.305C534.176 717.378 492.74 732.192 471.632 732.773C438.792 733.68 405.925 730.558 373.618 724.75C355.389 721.476 337.332 717.336 319.448 712.546Z" fill="#370138"/>
<path d="M231.516 780.55C223.093 775.275 215.286 768.29 211.577 759.076C205.459 743.882 212.38 725.544 225.107 715.23C237.835 704.923 255.074 701.642 271.429 702.59C287.776 703.538 303.624 708.301 319.446 712.544C331.149 715.687 342.97 718.414 354.832 720.934C355.247 739.417 353.081 774.603 334.623 807.049C316.345 805.56 298.185 802.577 280.287 798.527C263.303 794.692 246.271 789.798 231.516 780.55Z" fill="#FEFEFC"/>
<path d="M398.902 728.689C391.836 727.747 384.798 726.619 377.773 725.408C379.171 742.243 379.406 775.027 366.438 808.047C373.953 807.929 381.456 807.59 388.958 807.14C399.381 776.239 400.051 746.95 398.902 728.689Z" fill="#F8A44A"/>
<path d="M436.743 732.121C439.13 750.873 440.971 778.549 436.078 803.497C443.262 802.819 450.432 801.995 457.547 800.964C461.36 776.452 459.983 751.192 457.81 732.744C450.778 732.702 443.76 732.501 436.743 732.121Z" fill="#C0DCE5"/>
<path d="M544.357 999.064C531.346 1005.79 518.258 1016.59 512.673 1030.45C507.116 1044.21 509.372 1060.19 515.718 1073.6C522.072 1087.02 532.155 1098.28 542.585 1108.83C548.717 1115.05 555.07 1121.14 562.372 1125.93C570.552 1131.3 579.737 1134.92 588.851 1138.51C592.872 1140.09 597.032 1141.69 601.343 1141.54C606.278 1141.37 610.832 1138.91 614.888 1136.1C621.324 1131.65 627.553 1124.67 626.072 1116.99C625.151 1112.21 621.463 1108.53 617.947 1105.16C610.375 1097.92 602.811 1090.68 595.246 1083.44C591.433 1079.79 587.405 1075.74 586.644 1070.52C585.695 1063.95 590.353 1057.77 595.807 1054C601.267 1050.23 607.676 1048 613.102 1044.18C630.058 1032.19 632.308 1007.66 618.279 992.944C614.002 988.454 609.566 983.864 603.904 981.344C583.73 972.364 561.237 990.354 544.357 999.064Z" fill="#FEFEFC"/>
<path d="M544.665 1109.97C528.2 1110.17 511.742 1108.6 495.284 1109.1C478.826 1109.61 462.036 1112.35 447.738 1120.52C433.446 1128.7 421.965 1143.02 420.421 1159.42C420.02 1163.66 420.304 1168.04 421.875 1171.99C426.761 1184.27 441.931 1188.63 455.136 1189.09C466.846 1189.49 478.536 1188.1 490.101 1186.23C528.92 1179.95 567.095 1168.08 601.139 1148.41C612.199 1142.02 623.535 1133.87 627.21 1121.64C627.702 1120.01 628.048 1118.25 627.584 1116.6C627.03 1114.62 625.425 1113.13 623.798 1111.87C601.797 1094.92 569.801 1109.65 544.665 1109.97Z" fill="#FEFEFC"/>
<path d="M423.329 1177.71C424.118 1169.9 426.042 1162.51 428.858 1155.33C431.71 1148.21 435.696 1141.43 441.129 1135.92C446.458 1130.28 453.663 1126.56 461.117 1124.98C468.605 1123.03 476.322 1123.97 483.755 1125.06C484.004 1125.1 484.17 1125.33 484.136 1125.57C484.101 1125.81 483.879 1125.98 483.644 1125.96L483.596 1125.95C476.218 1125.13 468.633 1124.5 461.518 1126.65C454.417 1128.43 447.78 1132.17 442.949 1137.68C438.015 1143.07 434.457 1149.62 431.98 1156.51C429.544 1163.4 427.938 1170.77 427.481 1177.94L427.474 1178.05C427.405 1179.19 426.408 1180.06 425.266 1179.99C424.118 1179.92 423.253 1178.93 423.329 1177.78V1177.71Z" fill="#A7A9AC"/>
<path d="M434.898 1185.48C435.736 1177.18 437.805 1169.3 440.968 1161.72C444.172 1154.22 448.775 1147.1 455.232 1141.91C461.599 1136.66 469.883 1133.75 478.009 1133.9C482.099 1133.37 486.085 1134.58 490.092 1134.94C494.01 1135.83 497.83 1137.17 501.685 1138.25C501.899 1138.32 502.017 1138.53 501.955 1138.74C501.906 1138.95 501.692 1139.06 501.484 1139.01L501.422 1139C497.56 1138.05 493.747 1136.88 489.864 1136.13C485.926 1135.93 482.009 1134.86 478.085 1135.53C470.229 1135.67 462.589 1138.71 456.81 1143.81C450.948 1148.87 446.844 1155.72 444.041 1162.97C441.286 1170.23 439.549 1178.07 439.051 1185.71L439.044 1185.82C438.968 1186.97 437.978 1187.84 436.829 1187.76C435.687 1187.69 434.815 1186.7 434.891 1185.55C434.898 1185.53 434.898 1185.5 434.898 1185.48Z" fill="#A7A9AC"/>
<path d="M418.883 303.974C418.883 303.974 394.446 51.3833 478.472 6.41526C562.505 -38.5589 557.605 162.287 454.505 316.919L418.883 303.974Z" fill="#FEFEFC"/>
<path d="M534.768 42.9522C514.434 23.6042 477.505 9.51725 463.213 140.495C453.987 225.163 457.296 274.305 463.58 302.783C521.777 208.653 544.831 101.162 534.768 42.9522Z" fill="#FBB4B6"/>
<path d="M657.964 493.45C657.964 604.402 558.892 694.344 436.669 694.344C314.46 694.344 215.387 604.402 215.387 493.45C215.387 382.505 314.46 292.556 436.669 292.556C558.892 292.556 657.964 382.505 657.964 493.45Z" fill="#FEFEFC"/>
<path d="M300.75 523.807C300.75 523.807 335.499 595.537 414.197 574.762C414.197 574.762 466.948 568.207 436.676 518.047C436.676 518.047 395.732 548.118 312.128 518.047C312.128 518.047 307.061 514.116 300.75 523.807Z" fill="#2D0934"/>
<path d="M317.075 312.978C314.576 319.555 314.618 327.211 317.871 333.448C321.123 339.685 327.747 344.226 334.778 344.302C328.757 356.312 331.117 371.099 337.263 383.04C339.139 386.695 341.381 390.211 344.267 393.139C348.745 397.694 354.586 400.65 360.476 403.121C368.006 406.285 376.089 408.839 384.207 407.988C392.326 407.136 400.464 402.159 402.88 394.358C388.657 395.922 373.847 391.063 363.306 381.378C362.801 380.921 362.31 380.451 361.846 379.945C360.621 378.623 359.617 377.1 358.884 375.453C357.25 371.798 356.988 367.693 356.766 363.692C356.538 359.469 356.33 355.184 357.209 351.051C358.095 346.912 360.185 342.862 363.708 340.515C355.423 340.059 347.271 337.366 340.343 332.797C336.529 330.284 333.007 327.107 331 322.995C329.076 319.07 328.688 314.598 328.328 310.237C328.1 307.42 328.612 304.851 328.681 302.103C328.75 299.258 328.73 298.573 325.878 300.386C321.899 302.927 318.694 308.7 317.075 312.978Z" fill="#D8D8D8"/>
<path d="M455.919 297.481C448.064 297.184 440.305 294.595 433.848 290.123C420.09 280.605 413.023 263.576 399.313 253.988C388.966 246.74 374.301 244.761 363.684 251.607C353.068 258.446 349.289 275.074 357.843 284.363C348.569 284.703 339.274 288.586 333.26 295.654C327.253 302.722 324.941 313.057 328.305 321.71C331.523 330.01 339.565 335.935 348.272 337.77C356.985 339.611 366.21 337.7 374.156 333.672C363.055 337.126 354.334 347.274 352.597 358.772C350.853 370.27 356.182 382.543 365.761 389.127C372.848 394 381.672 395.744 390.281 395.876C407.023 396.132 424.069 390.373 436.167 378.805C448.278 367.231 454.867 349.69 451.863 333.215" fill="#FEFEFC"/>
<path d="M455.894 298.187C449.582 298.049 443.298 296.471 437.616 293.605C431.899 290.76 427.02 286.468 422.784 281.844C414.313 272.616 407.628 261.776 397.613 255.289C387.896 248.969 374.338 247.564 365.043 253.919C356.039 259.886 353.091 274.707 360.261 282.044L360.296 282.107L360.441 282.273C361.597 283.706 361.382 285.803 359.95 286.959C359.361 287.437 358.662 287.679 357.97 287.707C349.734 287.998 341.478 291.41 336.149 297.447C330.875 303.352 328.647 312.247 331.117 319.605C333.512 326.978 340.689 332.619 348.496 334.391C356.427 336.226 365.14 334.509 372.649 330.688L375.148 336.856C368.262 339.016 362.282 344.18 358.835 350.611C355.278 357.028 354.711 364.725 356.988 371.717C359.216 378.708 364.061 384.828 370.587 388.13C377.113 391.57 384.948 392.678 392.692 392.519C408.174 392.214 423.802 386.455 434.668 375.573C445.443 364.815 451.305 348.735 448.578 333.817C448.246 332.003 449.444 330.259 451.257 329.92C453.07 329.587 454.814 330.778 455.153 332.599V332.619C458.275 350.064 451.582 368.062 439.388 380.294C427.068 392.602 409.835 398.853 392.831 399.199C384.353 399.358 375.473 398.223 367.473 394.042C359.382 389.923 353.319 382.28 350.627 373.752C347.797 365.251 348.537 355.359 352.946 347.454C357.202 339.535 364.441 333.228 373.162 330.48C374.92 329.927 376.795 330.903 377.349 332.661C377.854 334.239 377.1 335.928 375.667 336.648C367.064 341.002 356.891 343.155 347.001 340.898C337.235 338.642 328.162 331.782 324.778 321.703C321.518 311.672 324.418 300.645 331.152 293.016C337.948 285.381 347.88 281.408 357.721 281.027L355.389 286.627L355.327 286.544C350.267 280.881 349.146 272.942 350.683 266.248C352.184 259.484 356.136 253.227 362.116 249.433C374.131 242.019 389.287 244.581 399.862 251.925C410.638 259.547 416.874 270.816 424.826 280.03C428.785 284.668 433.256 288.877 438.578 291.77C443.886 294.685 449.866 296.429 455.949 296.775C456.337 296.796 456.634 297.128 456.614 297.516C456.6 297.897 456.281 298.194 455.894 298.187Z" fill="#2D0934"/>
<path d="M532.523 322.747C532.523 322.747 532.523 68.9732 620.494 32.3122C708.472 -4.34857 684.249 195.085 566.733 339.063L532.523 322.747Z" fill="#FEFEFC"/>
<path d="M673.007 74.1062C654.632 52.8892 619.225 35.3062 592.392 164.298C575.049 247.684 573.602 296.923 577.118 325.866C644.112 237.785 677.415 133.015 673.007 74.1062Z" fill="#FBB4B6"/>
<path d="M293.297 528.231C293.297 528.231 301.402 580.17 341.017 574.299C380.618 568.429 347.965 528.757 347.965 528.757C347.965 528.757 329.141 524.126 308.911 516.934C308.911 516.934 300.537 525.185 293.297 528.231Z" fill="#FEFEFC"/>
<path d="M332.905 557.999C332.476 557.999 332.033 557.868 331.666 557.598C312.869 543.711 307.11 518.452 306.882 517.379C306.633 516.257 307.346 515.15 308.46 514.901C309.616 514.638 310.695 515.371 310.938 516.479C310.993 516.728 316.613 541.309 334.137 554.247C335.057 554.933 335.258 556.227 334.573 557.155C334.171 557.709 333.541 557.999 332.905 557.999Z" fill="#C4C4C4"/>
<path d="M295.624 529.448C297.292 537.956 306.967 577.275 340.706 572.249C349.939 570.878 355.642 567.521 357.663 562.267C362.002 550.997 349.267 533.809 346.776 530.604C343.253 529.711 326.906 525.468 309.417 519.314C307.168 521.411 301.327 526.61 295.624 529.448ZM334.927 576.845C299.223 576.845 291.319 529.06 291.243 528.555C291.097 527.607 291.617 526.686 292.496 526.312C299.271 523.46 307.368 515.527 307.452 515.451C308.012 514.897 308.884 514.696 309.611 514.973C329.495 522.048 348.271 526.7 348.458 526.741C348.894 526.852 349.281 527.094 349.572 527.434C350.292 528.313 367.186 549.08 361.538 563.755C358.936 570.518 352.14 574.755 341.322 576.354C339.094 576.686 336.962 576.845 334.927 576.845Z" fill="#C4C4C4"/>
<path d="M265.838 531.141C269.243 531.508 273.271 531.356 277.001 530.85C280.801 530.345 284.58 529.48 288.22 528.185C295.556 525.707 302.367 521.581 308.27 516.327L308.291 516.306C308.561 516.057 308.948 515.995 309.274 516.126C324.742 522.343 341.089 526.593 357.581 528.905C374.074 531.141 390.94 531.21 407.045 527.611C423.032 523.859 438.196 516.23 449.387 504.345C460.834 492.715 468.246 477.638 473.146 462.049L473.167 461.986C473.714 460.228 475.596 459.252 477.354 459.806C479.112 460.353 480.088 462.229 479.541 463.994C479.534 464.015 479.52 464.049 479.513 464.07C473.997 480.268 465.769 496.072 453.249 508.193C440.992 520.584 424.645 528.261 407.938 531.736C391.092 535.066 373.832 534.54 357.138 531.868C340.424 529.099 324.112 524.426 308.554 517.732L309.537 517.552L309.523 517.573C304.041 523.561 297.363 528.649 289.805 532.103C286.047 533.882 282.088 535.232 278.012 536.201C273.88 537.17 269.88 537.807 265.284 537.793C263.43 537.793 261.942 536.291 261.949 534.443C261.949 532.588 263.45 531.093 265.305 531.099C265.416 531.099 265.534 531.106 265.644 531.12L265.838 531.141Z" fill="#2D0934"/>
<path d="M289.008 493.45C289.008 493.45 310.123 496.891 326.754 493.45L307.888 519.838L289.008 493.45Z" fill="#FBB3B2"/>
<path d="M513.542 1026.72C516.891 1021.18 521.148 1016.26 526.048 1012.02C530.92 1007.77 536.63 1004.42 542.817 1002.28C543.364 1002.1 543.959 1002.38 544.146 1002.93C544.326 1003.47 544.042 1004.06 543.495 1004.25C543.488 1004.25 543.454 1004.26 543.44 1004.26C531.474 1007.93 521.224 1016.63 514.261 1027.14C514.158 1027.34 513.901 1027.42 513.694 1027.3C513.5 1027.19 513.438 1026.92 513.542 1026.72Z" fill="#A7A9AC"/>
<path d="M743.269 900.593C743.082 892.681 743.317 884.166 747.982 877.77C752.639 871.381 763.422 869.02 768.329 875.237C766.211 865.137 767.104 854.144 772.315 845.242C777.527 836.333 787.445 829.937 797.75 830.38C808.056 830.816 817.926 839.005 818.906 849.278C831.166 840.957 849.556 843.498 859.106 854.829C868.656 866.161 868.046 884.713 857.776 895.401C850.986 902.454 841.306 905.784 831.936 908.634C839.746 912.634 845.266 920.814 846.046 929.554C846.816 938.304 842.846 947.324 835.866 952.644C829.916 957.174 822.306 958.944 814.876 959.824C808.176 960.624 801.148 960.754 794.961 958.094C788.759 955.434 783.624 949.354 783.887 942.614C783.403 955.144 760.502 942.054 757.159 938.794C746.667 928.574 743.608 914.754 743.269 900.593Z" fill="#FEFEFC"/>
<path d="M610.233 470.189C610.233 505.625 581.518 534.353 546.084 534.353C510.656 534.353 481.934 505.625 481.934 470.189C481.934 434.754 510.656 406.026 546.084 406.026C581.518 406.026 610.233 434.754 610.233 470.189Z" fill="#FBB4B6"/>
<path d="M755.026 1158.66C752.618 1152.44 750.853 1146.19 749.607 1139.74C748.424 1133.3 747.849 1126.68 748.541 1120.1C749.22 1113.59 751.365 1106.92 755.974 1101.98C760.708 1097.11 767.193 1094.99 773.519 1093.8C773.692 1093.76 773.865 1093.88 773.9 1094.05C773.927 1094.23 773.789 1094.4 773.623 1094.44C767.429 1095.9 761.31 1098.26 757.103 1103.01C753.019 1107.81 751.303 1114.1 750.936 1120.31C750.299 1132.85 753.933 1145.53 758.833 1156.99L758.881 1157.09C759.331 1158.15 758.84 1159.37 757.781 1159.82C756.729 1160.27 755.504 1159.78 755.054 1158.73C755.047 1158.71 755.033 1158.68 755.026 1158.66Z" fill="#A7A9AC"/>
<path d="M765.432 1160.92C763.308 1154.53 761.702 1148.13 760.505 1141.58C759.321 1135.04 758.657 1128.36 759.044 1121.65C759.529 1115.09 761.225 1107.83 766.63 1103.27C772.083 1098.71 779.496 1098.71 785.856 1099.81C786.05 1099.84 786.174 1100.02 786.14 1100.21C786.105 1100.39 785.932 1100.51 785.752 1100.49C779.413 1099.66 772.333 1100.11 767.647 1104.45C762.982 1108.73 761.654 1115.47 761.467 1121.77C761.398 1134.61 764.906 1147.45 769.322 1159.46L769.357 1159.54C769.751 1160.62 769.204 1161.81 768.132 1162.21C767.045 1162.61 765.855 1162.06 765.46 1160.98C765.453 1160.96 765.439 1160.93 765.432 1160.92Z" fill="#A7A9AC"/>
<path d="M436.672 694.341C439.267 694.341 441.842 694.244 444.409 694.168C202.698 608.683 230.118 448.887 260.521 371.89C232.215 405.643 215.383 447.752 215.383 493.447C215.383 604.398 314.463 694.341 436.672 694.341Z" fill="#D1D3D4"/>
<g opacity="0.5">
<path d="M183.876 732.15C201.199 771.248 192.818 812.893 165.148 825.152C137.485 837.412 101.012 815.655 83.6886 776.557C66.3656 737.46 74.7536 695.815 102.417 683.555C130.087 671.296 166.553 693.053 183.876 732.15Z" fill="#FEFEFC"/>
</g>
<path d="M402.843 560.062C402.78 562.526 403.569 565.17 405.549 566.652C407.279 567.946 409.577 568.126 411.736 568.105C414.76 568.078 417.819 567.738 420.615 566.596C423.578 565.392 426.111 563.343 428.595 561.328C432.035 558.539 438.271 553.195 436.097 547.975C434.506 544.161 426.637 542.583 422.865 542.34C413.937 541.773 403.064 551.076 402.843 560.062Z" fill="#FBB4B6"/>
<path d="M357.681 454.688C360.934 445.315 368.554 437.825 378.028 434.198C382.734 432.425 387.814 431.408 392.77 431.775C397.746 431.865 402.494 433.311 406.847 435.181C407.961 435.651 408.473 436.939 408.003 438.046C407.643 438.891 406.812 439.389 405.94 439.369L405.746 439.362C401.303 439.244 397.068 439.05 392.984 439.576C388.88 439.922 384.991 440.988 381.274 442.428C377.565 443.896 374.014 445.855 370.685 448.291C367.377 450.7 364.041 453.525 361.051 456.515L360.878 456.695C360.124 457.45 358.899 457.45 358.138 456.695C357.598 456.148 357.446 455.366 357.681 454.688Z" fill="#2D0934"/>
<path d="M281.932 461.948C282.887 470.289 279.309 477.544 273.952 478.153C268.589 478.769 263.474 472.504 262.512 464.17C261.564 455.828 265.135 448.574 270.499 447.958C275.856 447.349 280.97 453.606 281.932 461.948Z" fill="#2D0934"/>
</svg>
